<?xml version="1.0" encoding="utf-8"?>
<!-- Generator: Adobe Illustrator 19.2.1, SVG Export Plug-In . SVG Version: 6.00 Build 0)  -->
<svg version="1.1" xmlns="http://www.w3.org/2000/svg" xmlns:xlink="http://www.w3.org/1999/xlink" x="0px" y="0px"
	 viewBox="0 0 171.5 142.9" style="enable-background:new 0 0 171.5 142.9;" xml:space="preserve">
<style type="text/css">
	.st0{fill:#1C2F63;}
	.st1{fill:#1C5573;}
	.st2{fill:#C9CC50;}
	.st3{fill:#4DB8CC;}
	.st4{fill:#8C8C8C;}
	.st5{fill:#419DAD;}
	.st6{fill:#52C4D9;}
	.st7{fill:#E6E6E6;}
	.st8{fill:#B3B3B3;}
	.st9{fill:#FFFFFF;}
</style>
<g id="Sfondi">
</g>
<g id="Icone">
	<g>
		<g>
			<g>
				<g>
					<path d="M97.3,23.4c-2.8,0-5-2.2-5-5V7c0-2.8,2.2-5,5-5s5,2.2,5,5v11.4C102.3,21.2,100,23.4,97.3,23.4z"/>
				</g>
			</g>
			<g>
				<g>
					<path d="M163.7,78.4h-11.4c-2.8,0-5-2.2-5-5c0-2.8,2.2-5,5-5h11.4c2.8,0,5,2.2,5,5C168.7,76.2,166.5,78.4,163.7,78.4z"/>
				</g>
			</g>
			<g>
				<g>
					<path d="M136.1,39.5c-1.3,0-2.6-0.5-3.5-1.5c-2-2-2-5.1,0-7.1l8.1-8.1c2-2,5.1-2,7.1,0c2,2,2,5.1,0,7.1l-8.1,8.1
						C138.7,39.1,137.4,39.5,136.1,39.5z"/>
				</g>
			</g>
			<g>
				<g>
					<path d="M144.2,125.4c-1.3,0-2.6-0.5-3.5-1.5l-8.1-8.1c-2-2-2-5.1,0-7.1c2-2,5.1-2,7.1,0l8.1,8.1c2,2,2,5.1,0,7.1
						C146.8,124.9,145.5,125.4,144.2,125.4z"/>
				</g>
				<g>
					<path d="M58.4,39.5c-1.3,0-2.6-0.5-3.5-1.5L46.8,30c-2-2-2-5.1,0-7.1c2-2,5.1-2,7.1,0l8.1,8.1c2,2,2,5.1,0,7.1
						C60.9,39.1,59.7,39.5,58.4,39.5z"/>
				</g>
			</g>
		</g>
		<path d="M97.3,31.4c-13.7,0-25.9,6.6-33.6,16.8c-5.7-2.8-12.1-4.4-18.8-4.4c-23.2,0-42,18.8-42,42c0,23.1,18.6,41.8,41.6,42h42.4
			c1.9,0,3.8-0.2,5.6-0.5c2.9-0.5,5.6-1.4,8.2-2.6c5.8-2.8,10.7-7.3,13.9-12.9c14.6-6.6,24.8-21.3,24.8-38.4
			C139.3,50.2,120.5,31.4,97.3,31.4z M107.1,103.9c-1.9,5-5.7,9.1-10.5,11.5c-2.9,1.5-6.3,2.4-9.8,2.4h-42c-17.6,0-32-14.4-32-32
			c0-17.6,14.4-32,32-32c4.9,0,9.6,1.1,13.8,3.1c3.1,1.5,6,3.5,8.4,5.9c1.7,1.6,3.2,3.4,4.5,5.4c1.8,2.8,3.2,5.9,4.2,9.2
			c2.8-1.7,6.1-2.8,9.6-3c0.5,0,1-0.1,1.6-0.1c12,0,21.8,9.8,21.8,21.8C108.6,98.8,108.1,101.4,107.1,103.9z M118.6,97.3
			c0-0.4,0-0.8,0-1.2c0-17.5-14.2-31.8-31.8-31.8c-1.9,0-3.8,0.2-5.6,0.5c0,0,0,0,0,0c-2.4-4.2-5.5-7.9-9.2-11
			c5.9-7.5,15-12.4,25.2-12.4c17.7,0,32,14.4,32,32C129.3,82.9,125.1,91.4,118.6,97.3z"/>
	</g>
	<g id="Cerca">
	</g>
</g>
</svg>
