<?xml version="1.0" encoding="utf-8"?>
<!-- Generator: Adobe Illustrator 19.2.1, SVG Export Plug-In . SVG Version: 6.00 Build 0)  -->
<svg version="1.1" xmlns="http://www.w3.org/2000/svg" xmlns:xlink="http://www.w3.org/1999/xlink" x="0px" y="0px"
	 viewBox="0 0 142.9 142.9" style="enable-background:new 0 0 142.9 142.9;" xml:space="preserve">
<style type="text/css">
	.st0{fill:#1C2F63;}
	.st1{fill:#1C5573;}
	.st2{fill:#C9CC50;}
	.st3{fill:#4DB8CC;}
	.st4{fill:#8C8C8C;}
	.st5{fill:#419DAD;}
	.st6{fill:#52C4D9;}
	.st7{fill:#E6E6E6;}
	.st8{fill:#B3B3B3;}
	.st9{fill:#FFFFFF;}
</style>
<g id="Sfondi">
</g>
<g id="Icone">
	<g>
		<g>
			<path d="M119,56h-95c-2.2,0-4-1.8-4-4s1.8-4,4-4h95c2.2,0,4,1.8,4,4S121.2,56,119,56z"/>
		</g>
		<g>
			<path d="M119,75.4h-95c-2.2,0-4-1.8-4-4s1.8-4,4-4h95c2.2,0,4,1.8,4,4S121.2,75.4,119,75.4z"/>
		</g>
		<g>
			<path d="M119,94.9h-95c-2.2,0-4-1.8-4-4s1.8-4,4-4h95c2.2,0,4,1.8,4,4S121.2,94.9,119,94.9z"/>
		</g>
	</g>
	<g id="Cerca">
	</g>
</g>
</svg>
