<?xml version="1.0" encoding="utf-8"?>
<!-- Generator: Adobe Illustrator 19.2.1, SVG Export Plug-In . SVG Version: 6.00 Build 0)  -->
<svg version="1.1" xmlns="http://www.w3.org/2000/svg" xmlns:xlink="http://www.w3.org/1999/xlink" x="0px" y="0px"
	 viewBox="0 0 159.5 142.9" style="enable-background:new 0 0 159.5 142.9;" xml:space="preserve">
<style type="text/css">
	.st0{fill:#1C2F63;}
	.st1{fill:#1C5573;}
	.st2{fill:#C9CC50;}
	.st3{fill:#4DB8CC;}
	.st4{fill:#8C8C8C;}
	.st5{fill:#419DAD;}
	.st6{fill:#52C4D9;}
	.st7{fill:#E6E6E6;}
	.st8{fill:#B3B3B3;}
	.st9{fill:#FFFFFF;}
</style>
<g id="Sfondi">
</g>
<g id="Icone">
	<path d="M133.8,61.7c0-9.6,4.3-18.2,11-24.1c2.6-2.3,5.6-4.1,8.8-5.5c-2.6-2.6-5.6-4.9-8.8-6.8c-6.2-3.6-13.4-5.6-21-5.6
		c-21.5,0-39.2,16.1-41.7,37C74.5,46.1,62,39.1,47.9,39.1c-23.2,0-42,18.8-42,42c0,23.1,18.6,41.8,41.6,42h42.4
		c13.3,0,24.6-8.1,29.4-19.7c1.5,0.2,3,0.2,4.5,0.2c7.6,0,14.8-2,21-5.6c3.2-1.9,6.2-4.2,8.8-6.8c-3.2-1.3-6.2-3.2-8.8-5.5
		C138,80,133.8,71.3,133.8,61.7z M89.9,113.1h-42c-17.6,0-32-14.4-32-32c0-17.6,14.4-32,32-32c11.1,0,21,5.7,26.7,14.4
		c1.8,2.8,3.2,5.9,4.2,9.2c1.2-0.8,2.6-1.4,4-1.8c1.8-0.6,3.6-1,5.6-1.2c0.5,0,1-0.1,1.6-0.1c1,0,2,0.1,2.9,0.2
		c10.6,1.4,18.8,10.5,18.9,21.5v0.1c0,3.5-0.8,6.8-2.3,9.8C105.8,108.3,98.4,113.1,89.9,113.1z M123.8,93.7c-0.7,0-1.5,0-2.2-0.1
		c0-0.7,0.1-1.5,0.1-2.2c0-16.9-13.2-30.7-29.8-31.7c1-16.7,15-30,31.9-30c4.3,0,8.4,0.9,12.2,2.4c-7.5,7.6-12.2,18-12.2,29.6
		c0,11.5,4.6,22,12.2,29.6C132.2,92.8,128.1,93.7,123.8,93.7z"/>
	<g id="Cerca">
	</g>
</g>
</svg>
