<?xml version="1.0" encoding="utf-8"?>
<!-- Generator: Adobe Illustrator 19.2.1, SVG Export Plug-In . SVG Version: 6.00 Build 0)  -->
<svg version="1.1" xmlns="http://www.w3.org/2000/svg" xmlns:xlink="http://www.w3.org/1999/xlink" x="0px" y="0px"
	 viewBox="0 0 142.9 142.9" style="enable-background:new 0 0 142.9 142.9;" xml:space="preserve">
<style type="text/css">
	.st0{fill:#1C2F63;}
	.st1{fill:#1C5573;}
	.st2{fill:#C9CC50;}
	.st3{fill:#4DB8CC;}
	.st4{fill:#8C8C8C;}
	.st5{fill:#419DAD;}
	.st6{fill:#52C4D9;}
	.st7{fill:#E6E6E6;}
	.st8{fill:#B3B3B3;}
	.st9{fill:#FFFFFF;}
</style>
<g id="Sfondi">
</g>
<g id="Icone">
	<g>
		<path d="M97.6,49.9c-1.9,0-3.8,0.2-5.6,0.5c0,0,0,0,0,0c-7.3-12.5-20.8-21-36.4-21c-23.2,0-42,18.8-42,42
			c0,23.1,18.6,41.8,41.6,42h42.4c17.5,0,31.8-14.2,31.8-31.8C129.3,64.1,115.1,49.9,97.6,49.9z M97.6,103.4h-42
			c-17.6,0-32-14.4-32-32s14.4-32,32-32c11.1,0,21,5.7,26.7,14.4c1.8,2.8,3.2,5.9,4.2,9.2c2.8-1.7,6.1-2.8,9.6-3
			c0.5,0,1-0.1,1.6-0.1c12,0,21.8,9.8,21.8,21.8S109.6,103.4,97.6,103.4z"/>
		<g>
			<path d="M43.4,142.6c-0.5,0-0.9-0.1-1.4-0.2c-2.6-0.8-4.2-3.6-3.4-6.2l3.2-11c0.8-2.6,3.6-4.2,6.2-3.4c2.6,0.8,4.2,3.6,3.4,6.2
				l-3.2,11C47.5,141.2,45.5,142.6,43.4,142.6z"/>
		</g>
		<g>
			<path d="M64.2,142.6c-0.5,0-0.9-0.1-1.4-0.2c-2.6-0.8-4.2-3.6-3.4-6.2l3.2-11c0.8-2.6,3.6-4.2,6.2-3.4c2.6,0.8,4.2,3.6,3.4,6.2
				L69,139C68.3,141.2,66.3,142.6,64.2,142.6z"/>
		</g>
		<g>
			<path d="M85,142.6c-0.5,0-0.9-0.1-1.4-0.2c-2.6-0.8-4.2-3.6-3.4-6.2l3.2-11c0.8-2.6,3.6-4.2,6.2-3.4c2.6,0.8,4.2,3.6,3.4,6.2
				l-3.2,11C89.1,141.2,87.2,142.6,85,142.6z"/>
		</g>
	</g>
	<g id="Cerca">
	</g>
</g>
</svg>
