<?xml version="1.0" encoding="utf-8"?>
<!-- Generator: Adobe Illustrator 19.2.1, SVG Export Plug-In . SVG Version: 6.00 Build 0)  -->
<svg version="1.1" xmlns="http://www.w3.org/2000/svg" xmlns:xlink="http://www.w3.org/1999/xlink" x="0px" y="0px"
	 viewBox="0 0 142.9 142.9" style="enable-background:new 0 0 142.9 142.9;" xml:space="preserve">
<style type="text/css">
	.st0{fill:#1C2F63;}
	.st1{fill:#1C5573;}
	.st2{fill:#C9CC50;}
	.st3{fill:#4DB8CC;}
	.st4{fill:#8C8C8C;}
	.st5{fill:#419DAD;}
	.st6{fill:#52C4D9;}
	.st7{fill:#E6E6E6;}
	.st8{fill:#B3B3B3;}
	.st9{fill:#FFFFFF;}
</style>
<g id="Sfondi">
</g>
<g id="Icone">
	<path d="M87.5,71.4c0-9.6,4.3-18.2,11-24.1c2.6-2.3,5.6-4.1,8.8-5.5c-2.6-2.6-5.6-4.9-8.8-6.8c-6.2-3.6-13.3-5.6-21-5.6
		c-23.2,0-42,18.8-42,42s18.8,42,42,42c7.7,0,14.8-2,21-5.6c3.2-1.9,6.2-4.2,8.8-6.8c-3.2-1.3-6.2-3.2-8.8-5.4
		C91.8,89.7,87.5,81,87.5,71.4z M77.5,103.4c-17.6,0-32-14.4-32-32s14.4-32,32-32c4.3,0,8.4,0.9,12.2,2.4
		c-7.5,7.6-12.2,18-12.2,29.6c0,11.5,4.7,22,12.2,29.6C86,102.6,81.8,103.4,77.5,103.4z"/>
	<g id="Cerca">
	</g>
</g>
</svg>
