<?xml version="1.0" encoding="utf-8"?>
<!-- Generator: Adobe Illustrator 19.2.1, SVG Export Plug-In . SVG Version: 6.00 Build 0)  -->
<svg version="1.1" xmlns="http://www.w3.org/2000/svg" xmlns:xlink="http://www.w3.org/1999/xlink" x="0px" y="0px"
	 viewBox="0 0 142.9 142.9" style="enable-background:new 0 0 142.9 142.9;" xml:space="preserve">
<style type="text/css">
	.st0{fill:#52C4D9;}
	.st1{fill:#C9CC50;}
	.st2{fill:#1C5573;}
	.st3{fill:#1C2F63;}
	.st4{fill:#4DB8CC;}
	.st5{fill:#8C8C8C;}
	.st6{fill:#419DAD;}
	.st7{fill:#E6E6E6;}
	.st8{fill:#B3B3B3;}
	.st9{fill:#FFFFFF;}
	.st10{fill:none;stroke:#FFFFFF;stroke-width:0.5;stroke-miterlimit:10;}
	.st11{fill:#FFFFFF;stroke:#FFFFFF;stroke-width:2;stroke-miterlimit:10;}
	.st12{fill:none;stroke:#FFFFFF;stroke-width:0.5;stroke-linecap:round;stroke-miterlimit:10;}
	.st13{fill:none;stroke:#FFFFFF;stroke-width:6;stroke-linecap:round;stroke-miterlimit:10;}
	.st14{opacity:0.4;}
</style>
<g id="Sfondi">
</g>
<g id="Icone">
	<g>
		<path d="M71.4,40.4c17.1,0,31,13.9,31,31s-13.9,31-31,31s-31-13.9-31-31S54.3,40.4,71.4,40.4 M71.4,30.7
			c-22.5,0-40.7,18.2-40.7,40.7s18.2,40.7,40.7,40.7s40.7-18.2,40.7-40.7S93.9,30.7,71.4,30.7L71.4,30.7z"/>
		<g>
			<g>
				<path d="M71.4,23c-2.7,0-4.8-2.2-4.8-4.8V7c0-2.7,2.2-4.8,4.8-4.8c2.7,0,4.8,2.2,4.8,4.8v11.1C76.3,20.8,74.1,23,71.4,23z"/>
			</g>
			<g>
				<path d="M71.4,140.7c-2.7,0-4.8-2.2-4.8-4.8v-11.1c0-2.7,2.2-4.8,4.8-4.8c2.7,0,4.8,2.2,4.8,4.8v11.1
					C76.3,138.5,74.1,140.7,71.4,140.7z"/>
			</g>
		</g>
		<g>
			<g>
				<path d="M135.8,76.3h-11.1c-2.7,0-4.8-2.2-4.8-4.8c0-2.7,2.2-4.8,4.8-4.8h11.1c2.7,0,4.8,2.2,4.8,4.8
					C140.7,74.1,138.5,76.3,135.8,76.3z"/>
			</g>
			<g>
				<path d="M18.1,76.3H7c-2.7,0-4.8-2.2-4.8-4.8c0-2.7,2.2-4.8,4.8-4.8h11.1c2.7,0,4.8,2.2,4.8,4.8C23,74.1,20.8,76.3,18.1,76.3z"
					/>
			</g>
		</g>
		<g>
			<g>
				<path d="M109.1,38.6c-1.2,0-2.5-0.5-3.4-1.4c-1.9-1.9-1.9-5,0-6.9l7.8-7.8c1.9-1.9,5-1.9,6.9,0c1.9,1.9,1.9,5,0,6.9l-7.8,7.8
					C111.6,38.1,110.4,38.6,109.1,38.6z"/>
			</g>
			<g>
				<path d="M25.9,121.8c-1.2,0-2.5-0.5-3.4-1.4c-1.9-1.9-1.9-5,0-6.9l7.8-7.8c1.9-1.9,5-1.9,6.9,0c1.9,1.9,1.9,5,0,6.9l-7.8,7.8
					C28.4,121.3,27.1,121.8,25.9,121.8z"/>
			</g>
		</g>
		<g>
			<g>
				<path d="M117,121.8c-1.2,0-2.5-0.5-3.4-1.4l-7.8-7.8c-1.9-1.9-1.9-5,0-6.9c1.9-1.9,5-1.9,6.9,0l7.8,7.8c1.9,1.9,1.9,5,0,6.9
					C119.4,121.3,118.2,121.8,117,121.8z"/>
			</g>
			<g>
				<path d="M33.7,38.6c-1.2,0-2.5-0.5-3.4-1.4l-7.8-7.8c-1.9-1.9-1.9-5,0-6.9c1.9-1.9,5-1.9,6.9,0l7.8,7.8c1.9,1.9,1.9,5,0,6.9
					C36.2,38.1,35,38.6,33.7,38.6z"/>
			</g>
		</g>
	</g>
	<g id="Cerca">
	</g>
</g>
</svg>
